<svg width="113" height="86" viewBox="0 0 113 86" fill="none" xmlns="http://www.w3.org/2000/svg">
<g id="Group 6">
<path id="Vector" d="M82.8211 66.6102C84.1929 65.3257 84.8748 63.5257 84.8748 61.2024C84.8748 58.903 84.1929 57.0951 82.8211 55.7947C81.4097 54.5101 79.3164 53.8758 76.5332 53.8758V68.537C79.3164 68.537 81.4097 67.8947 82.8211 66.6102ZM55.6238 55.8026C54.2361 57.103 53.5384 58.9109 53.5384 61.2104C53.5384 63.5574 54.2361 65.3574 55.6238 66.6181C57.0114 67.9027 59.0968 68.537 61.88 68.537V53.8758C59.0968 53.8758 57.0114 54.5181 55.6238 55.8026ZM94.0252 46.7078C98.1484 49.8557 100.21 54.6846 100.21 61.2024C100.21 67.6965 98.1484 72.5175 94.0252 75.6654C89.9019 78.8133 84.066 80.4388 76.5332 80.5498V85.2043H61.88V80.5498C54.3868 80.4626 48.5667 78.8371 44.4197 75.6654C40.2727 72.4937 38.1953 67.6727 38.1953 61.2024C38.1953 54.7084 40.2648 49.8795 44.4197 46.7078C48.5271 43.5836 54.3472 41.9661 61.88 41.855V37.2006H76.5332V41.855C84.0898 41.9661 89.9178 43.5836 94.0252 46.7078Z" fill="#204A9A"/>
<path id="Vector_2" d="M76.6282 37.2561H61.8798V85.1885H76.6282V37.2561Z" fill="#CB1517"/>
<path id="Vector_3" d="M78.8565 41.9821V42.323C88.3875 42.4182 96.1106 50.728 96.1106 60.933C96.1106 71.13 88.3875 79.4478 78.8565 79.543V79.876C88.5619 79.7808 96.4278 71.3203 96.4278 60.933C96.4278 50.5377 88.5619 42.0772 78.8565 41.9821Z" fill="#F3F3F2"/>
<path id="Vector_4" d="M78.8565 45.0427V45.3837C86.8016 45.4868 93.2402 52.4169 93.2402 60.925C93.2402 69.4331 86.8016 76.3712 78.8565 76.4664V76.7994C86.9761 76.7043 93.5574 69.6155 93.5574 60.9171C93.5574 52.2346 86.9761 45.1458 78.8565 45.0427Z" fill="#F3F3F2"/>
<path id="Vector_5" d="M78.8565 48.5394V48.8804C85.0017 48.9755 89.9654 54.3437 89.9654 60.9249C89.9654 67.5062 85.0017 72.8743 78.8565 72.9695V73.3025C85.1682 73.2074 90.2826 67.6886 90.2826 60.917C90.2826 54.1613 85.1761 48.6346 78.8565 48.5394Z" fill="#F3F3F2"/>
<path id="Vector_6" d="M78.8565 51.7745V52.1076C83.3286 52.2027 86.9364 56.1277 86.9364 60.9249C86.9364 65.7221 83.3286 69.6392 78.8565 69.7343V70.0753C83.5031 69.9801 87.2536 65.9045 87.2536 60.9249C87.2536 55.9453 83.5031 51.8697 78.8565 51.7745Z" fill="#F3F3F2"/>
<path id="Vector_7" d="M60.3496 79.876V79.535C50.8187 79.4399 43.0956 71.13 43.0956 60.9251C43.0956 50.728 50.8187 42.4102 60.3496 42.3151V41.9821C50.6442 42.0772 42.7784 50.5377 42.7784 60.9251C42.7784 71.3124 50.6442 79.7808 60.3496 79.876Z" fill="#F3F3F2"/>
<path id="Vector_8" d="M60.3495 76.8072V76.4663C52.4044 76.3632 45.9658 69.433 45.9658 60.9249C45.9658 52.4168 52.4044 45.4787 60.3495 45.3836V45.0505C52.2299 45.1457 45.6486 52.2344 45.6486 60.9328C45.6486 69.6233 52.2299 76.7121 60.3495 76.8072Z" fill="#F3F3F2"/>
<path id="Vector_9" d="M60.3497 73.3104V72.9695C54.2045 72.8743 49.2408 67.5062 49.2408 60.9249C49.2408 54.3437 54.2045 48.9755 60.3497 48.8804V48.5474C54.038 48.6425 48.9236 54.1613 48.9236 60.9329C48.9236 67.6965 54.038 73.2153 60.3497 73.3104Z" fill="#F3F3F2"/>
<path id="Vector_10" d="M60.3496 70.0753V69.7422C55.8775 69.6471 52.2696 65.73 52.2696 60.9249C52.2696 56.1277 55.8775 52.2107 60.3496 52.1155V51.7745C55.703 51.8697 51.9525 55.9453 51.9525 60.9249C51.9525 65.9124 55.703 69.9801 60.3496 70.0753Z" fill="#F3F3F2"/>
<path id="Vector_11" d="M48.1782 19.788C47.3694 14.6736 45.2998 10.5107 41.9933 7.31523C37.5847 3.10479 31.5664 0.995605 23.9463 0.995605C16.8021 0.995605 11.0375 2.79555 6.64472 6.40336C2.21227 10.0032 0 14.6577 0 20.343H15.2163L15.2797 19.6611C15.4065 18.4479 16.0171 17.1872 17.1034 15.8788C17.6901 15.1652 18.5862 14.5784 19.7914 14.1344C20.9967 13.6904 22.3843 13.4683 23.9463 13.4683C25.5322 13.4683 26.9516 13.6824 28.1965 14.1185C29.4493 14.5546 30.3611 15.078 30.9479 15.6806C31.4712 16.2039 31.9073 16.8383 32.2483 17.5995C32.621 18.4003 32.8033 19.1298 32.8033 19.78H20.1324V29.6837H33.065V30.3339C33.065 31.5074 32.4941 32.7682 31.3443 34.1161C30.7576 34.8139 29.7981 35.3927 28.474 35.8606C27.1498 36.3284 25.6432 36.5583 23.9463 36.5583C22.4477 36.5583 21.0918 36.3205 19.8707 35.8606C18.6496 35.3927 17.7298 34.8218 17.1034 34.1479C16.5166 33.5214 16.0805 32.8237 15.803 32.0625C15.4145 31.0634 15.2163 30.2704 15.2163 29.6837H0C0 35.3769 2.21227 40.0076 6.64472 43.5916C11.0296 47.1994 16.7941 48.9994 23.9463 48.9994C31.5664 48.9994 37.5847 46.8981 41.9933 42.6797C45.4188 39.4049 47.5042 35.1073 48.2575 29.7868C48.4716 28.2881 48.5746 26.7102 48.5746 25.053C48.5746 23.1975 48.4398 21.4452 48.1782 19.788Z" fill="#204A9A"/>
<path id="Vector_12" d="M48.5747 25.0609C48.5747 26.7181 48.4637 28.2961 48.2576 29.7947H20.1324V19.788H48.1782C48.4399 21.4452 48.5747 23.1975 48.5747 25.0609Z" fill="#CB1517"/>
<path id="Vector_13" d="M25.9208 1.7251V2.14535C37.6244 2.26429 47.0999 12.4692 47.0999 24.9975C47.0999 37.5178 37.6165 47.7307 25.9208 47.8496V48.2619C37.8385 48.143 47.4963 37.7556 47.4963 24.9975C47.4963 12.2393 37.8385 1.84404 25.9208 1.7251Z" fill="#F3F3F2"/>
<path id="Vector_14" d="M25.9208 5.49158V5.91183C35.6738 6.03077 43.5793 14.5468 43.5793 24.9976C43.5793 35.4483 35.6818 43.9644 25.9208 44.0833V44.4956C35.8879 44.3767 43.9678 35.6783 43.9678 24.9976C43.9678 14.3168 35.8879 5.61052 25.9208 5.49158Z" fill="#F3F3F2"/>
<path id="Vector_15" d="M25.9208 9.78125V10.2015C33.4616 10.3204 39.5591 16.9097 39.5591 24.9896C39.5591 33.0695 33.4616 39.6666 25.9208 39.7776V40.19C33.6757 40.071 39.9477 33.2915 39.9477 24.9816C39.9477 16.6797 33.6757 9.90019 25.9208 9.78125Z" fill="#F3F3F2"/>
<path id="Vector_16" d="M25.9208 13.7538V14.1661C31.4158 14.285 35.8482 19.0981 35.8482 24.9895C35.8482 30.881 31.4158 35.694 25.9208 35.813V36.2332C31.622 36.1143 36.2289 31.1189 36.2289 24.9975C36.2289 18.8761 31.622 13.8727 25.9208 13.7538Z" fill="#F3F3F2"/>
<path id="Vector_17" d="M23.1534 22.8883H32.9857M23.1534 26.7816H32.9857H23.1534ZM23.1534 25.4812H32.9857H23.1534ZM23.1534 24.1887H32.9857H23.1534Z" stroke="#F3F3F2" stroke-width="1.166" stroke-miterlimit="10"/>
<g id="Group 4">
<path id="Vector_18" d="M60.4606 12.5168H58.2879V12.0966H60.4606C60.4606 11.7081 60.3178 11.3116 60.0324 10.9072C59.8896 10.709 59.6914 10.5425 59.4297 10.4077C59.1681 10.2808 58.8668 10.2094 58.5337 10.2094C58.2483 10.2094 57.9866 10.257 57.7487 10.3601C57.5188 10.4552 57.3364 10.5742 57.2016 10.7169C57.0668 10.8596 56.9558 11.0103 56.8765 11.1609C56.7259 11.4305 56.6545 11.6288 56.6545 11.7556H56.1946C56.1946 11.486 56.2977 11.1847 56.496 10.8517C56.607 10.6693 56.7497 10.4949 56.9241 10.3284C57.0906 10.1698 57.3206 10.035 57.5981 9.9319C57.8835 9.82882 58.2007 9.77332 58.5337 9.77332C59.2712 9.77332 59.8579 10.0112 60.2941 10.479C60.7302 10.9548 60.9443 11.5574 60.9443 12.2948C60.9443 13.0322 60.7302 13.6428 60.2941 14.1106C59.8579 14.5784 59.2712 14.8163 58.5337 14.8163C58.1928 14.8163 57.8835 14.7608 57.5981 14.6577C57.3126 14.5547 57.0906 14.4199 56.9241 14.2533C56.7497 14.0948 56.6149 13.9203 56.496 13.7379C56.2898 13.4049 56.1946 13.1036 56.1946 12.834H56.6545C56.6545 12.9609 56.7259 13.1512 56.8607 13.4128C56.94 13.5714 57.051 13.7221 57.1858 13.8648C57.3127 13.9996 57.495 14.1265 57.7408 14.2296C57.9708 14.3326 58.2404 14.3881 58.5337 14.3881C58.7954 14.3881 59.0333 14.3485 59.2633 14.2613C59.4853 14.1741 59.6756 14.063 59.8262 13.9203C59.9689 13.7855 60.0879 13.6349 60.191 13.4604C60.3654 13.1591 60.4606 12.8419 60.4606 12.5168Z" fill="white"/>
<path id="Vector_19" d="M65.1706 14.7608H64.5917L62.4587 13.0401V14.7608H62.0306V11.3195H62.4587V13.0163L64.449 11.3195H65.0358L63.0455 13.0163L65.1706 14.7608Z" fill="white"/>
<path id="Vector_20" d="M67.3193 14.412C67.7317 14.412 68.0647 14.2772 68.3264 14.0155C68.5801 13.7538 68.707 13.4287 68.707 13.0402C68.707 12.6517 68.5801 12.3266 68.3264 12.0649C68.0726 11.8032 67.7396 11.6764 67.3193 11.6764C66.907 11.6764 66.574 11.8032 66.3202 12.0649C66.0586 12.3266 65.9317 12.6517 65.9317 13.0402C65.9317 13.4287 66.0586 13.7538 66.3202 14.0155C66.574 14.2772 66.907 14.412 67.3193 14.412ZM66.0031 14.3327C65.6542 13.9996 65.4797 13.5714 65.4797 13.0402C65.4797 12.5089 65.6542 12.0807 66.0031 11.7477C66.3441 11.4147 66.7881 11.2561 67.3193 11.2561C67.8506 11.2561 68.2947 11.4226 68.6356 11.7477C68.9766 12.0807 69.151 12.5089 69.151 13.0402C69.151 13.5714 68.9766 13.9996 68.6356 14.3327C68.2947 14.6657 67.8506 14.8243 67.3193 14.8243C66.7881 14.8243 66.352 14.6578 66.0031 14.3327Z" fill="white"/>
<path id="Vector_21" d="M73.417 14.7608H72.9809V13.1908H70.6417V14.7608H70.2056V11.3195H70.6417V12.7784H72.9809V11.3195H73.417V14.7608Z" fill="white"/>
<path id="Vector_22" d="M76.3033 14.412C76.7157 14.412 77.0487 14.2772 77.3024 14.0155C77.5562 13.7538 77.683 13.4287 77.683 13.0402C77.683 12.6517 77.5562 12.3266 77.3024 12.0649C77.0487 11.8032 76.7157 11.6764 76.3033 11.6764C75.891 11.6764 75.558 11.8032 75.3042 12.0649C75.0426 12.3266 74.9157 12.6517 74.9157 13.0402C74.9157 13.4287 75.0426 13.7538 75.3042 14.0155C75.5501 14.2772 75.8831 14.412 76.3033 14.412ZM74.9871 14.3327C74.6382 13.9996 74.4637 13.5714 74.4637 13.0402C74.4637 12.5089 74.6382 12.0807 74.9871 11.7477C75.328 11.4147 75.7721 11.2561 76.3033 11.2561C76.8346 11.2561 77.2786 11.4226 77.6196 11.7477C77.9605 12.0807 78.135 12.5089 78.135 13.0402C78.135 13.5714 77.9605 13.9996 77.6196 14.3327C77.2786 14.6657 76.8346 14.8243 76.3033 14.8243C75.7641 14.8243 75.328 14.6578 74.9871 14.3327Z" fill="white"/>
<path id="Vector_23" d="M82.5595 11.8111H82.5436L81.3859 13.833H80.7912L79.6336 11.8111H79.6177V14.7608H79.1816V11.3195H79.8555L81.0846 13.4921H81.0925L82.3215 11.3195H82.9956V14.7608H82.5595V11.8111Z" fill="white"/>
<path id="Vector_24" d="M87.3883 14.7608H86.9602V11.7873H86.9443L84.7955 14.7608H84.1849V11.3195H84.6131V14.2929H84.629L86.7778 11.3195H87.3883V14.7608Z" fill="white"/>
<path id="Vector_25" d="M88.9425 11.3196V12.3662C88.9425 12.9451 89.2993 13.2385 90.0129 13.2385H90.9803V11.3196H91.4164V14.7529H90.9803V13.6349H90.0129C89.0059 13.6349 88.5064 13.2067 88.5064 12.3583V11.3116H88.9425V11.3196Z" fill="white"/>
<path id="Vector_26" d="M92.915 12.8975H95.6744C95.6744 12.6199 95.5554 12.3424 95.3096 12.0728C95.0638 11.8032 94.7308 11.6684 94.2947 11.6684C93.8586 11.6684 93.5176 11.8032 93.2797 12.0728C93.0339 12.3503 92.915 12.6199 92.915 12.8975ZM96.1263 13.0402L96.1025 13.3098H92.9229C92.9229 13.4129 92.9784 13.5635 93.0973 13.7538C93.1608 13.8648 93.2401 13.9679 93.3352 14.0631C93.4383 14.1661 93.5731 14.2454 93.7476 14.3168C93.922 14.3802 94.1044 14.412 94.3105 14.412C94.4533 14.412 94.596 14.3961 94.7308 14.3644C94.8656 14.3327 94.9766 14.2851 95.0638 14.2296C95.2303 14.1265 95.3413 14.0313 95.3969 13.9521L95.4444 13.8965H95.9677C95.9519 13.9283 95.936 13.9679 95.9202 13.9917C95.8964 14.0393 95.833 14.1186 95.7457 14.2216C95.6506 14.3327 95.5475 14.4278 95.4365 14.5071C95.3175 14.5943 95.1589 14.6657 94.9607 14.7291C94.7625 14.8005 94.5405 14.8322 94.3105 14.8322C93.7714 14.8322 93.3273 14.6657 92.9784 14.3406C92.6295 14.0076 92.4551 13.5794 92.4551 13.0481C92.4551 12.5248 92.6295 12.0887 92.9784 11.7556C93.3193 11.4226 93.7634 11.2561 94.2947 11.2561C94.8259 11.2561 95.27 11.4226 95.6109 11.7556C95.9598 12.0807 96.1263 12.5089 96.1263 13.0402Z" fill="white"/>
<path id="Vector_27" d="M97.5537 14.3327C97.2127 13.9996 97.0383 13.5714 97.0383 13.0402C97.0383 12.5089 97.2127 12.0807 97.5537 11.7477C97.8867 11.4147 98.3308 11.2561 98.8621 11.2561C99.092 11.2561 99.314 11.2878 99.5281 11.3592C99.7342 11.4305 99.9087 11.5178 100.051 11.6367C100.186 11.7477 100.297 11.8667 100.392 12.0015C100.567 12.2393 100.654 12.4613 100.654 12.6596H100.202C100.202 12.612 100.178 12.5327 100.131 12.4376C100.083 12.3424 100.012 12.2314 99.9166 12.1204C99.8135 12.0015 99.6787 11.8904 99.4884 11.8111C99.2981 11.7239 99.0841 11.6843 98.8621 11.6843C98.4497 11.6843 98.1246 11.8112 97.8709 12.0728C97.6172 12.3345 97.4903 12.6596 97.4903 13.0481C97.4903 13.4367 97.6172 13.7617 97.8709 14.0234C98.1167 14.2851 98.4497 14.4199 98.8621 14.4199C99.092 14.4199 99.2981 14.3723 99.4884 14.293C99.6708 14.2058 99.8135 14.1027 99.9166 13.9758C100.107 13.738 100.202 13.5556 100.202 13.4367H100.654C100.662 13.5635 100.614 13.73 100.503 13.9283C100.392 14.1265 100.242 14.3009 100.051 14.4595C99.9166 14.5705 99.7422 14.6657 99.5281 14.737C99.3219 14.8084 99.0999 14.8401 98.8621 14.8401C98.3308 14.8243 97.8947 14.6578 97.5537 14.3327Z" fill="white"/>
<path id="Vector_28" d="M104.817 14.7608H104.23L102.105 13.0401V14.7608H101.669V11.3195H102.105V13.0163L104.095 11.3195H104.674L102.684 13.0163L104.817 14.7608Z" fill="white"/>
<path id="Vector_29" d="M108.607 14.7608H108.179V11.7873H108.163L106.014 14.7608H105.404V11.3195H105.832V14.2929H105.848L107.997 11.3195H108.607V14.7608Z" fill="white"/>
<path id="Vector_30" d="M112.088 10.6693C111.922 10.7883 111.7 10.8517 111.414 10.8517C111.129 10.8517 110.907 10.7883 110.74 10.6693C110.574 10.5504 110.494 10.3759 110.494 10.146V10.1222H110.891V10.1381C110.891 10.2491 110.938 10.3363 111.026 10.3997C111.113 10.4631 111.248 10.5028 111.414 10.5028C111.581 10.5028 111.708 10.4711 111.803 10.3997C111.898 10.3363 111.945 10.2411 111.945 10.1381V10.1222H112.334V10.146C112.334 10.3759 112.255 10.5504 112.088 10.6693ZM113 14.7608H112.572V11.7953H112.556L110.407 14.7608H109.797V11.3274H110.225V14.3009H110.241L112.389 11.3274H113V14.7608Z" fill="white"/>
<path id="Vector_31" d="M59.7389 21.0091C60.0085 20.7633 60.1433 20.4382 60.1433 20.0417C60.1433 19.6452 60.0085 19.3281 59.7389 19.0743C59.4693 18.8206 59.0967 18.6858 58.613 18.6699V21.4055C59.0888 21.3976 59.4693 21.2628 59.7389 21.0091ZM58.1769 21.4135V18.6779C57.6932 18.6937 57.3205 18.8285 57.0509 19.0823C56.7813 19.336 56.6466 19.6532 56.6466 20.0496C56.6466 20.4382 56.7813 20.7633 57.0509 21.017C57.3205 21.2628 57.7011 21.3976 58.1769 21.4135ZM56.7417 21.3342C56.377 21.017 56.1946 20.5888 56.1946 20.0496C56.1946 19.5104 56.377 19.0822 56.7417 18.7651C57.1064 18.4479 57.5901 18.2814 58.1769 18.2655V16.8621H58.613V18.2655C59.1998 18.2814 59.6755 18.4479 60.0482 18.7651C60.4129 19.0822 60.5953 19.5184 60.5953 20.0496C60.5953 20.5888 60.4129 21.017 60.0482 21.3342C59.6834 21.6513 59.1998 21.8179 58.613 21.8337V23.1658H58.1769V21.8337C57.5901 21.8179 57.1144 21.6513 56.7417 21.3342Z" fill="white"/>
<path id="Vector_32" d="M61.9115 20.8268C61.9115 21.2312 62.3159 21.4294 63.1326 21.4294C63.3705 21.4294 63.5925 21.3977 63.7987 21.3263C64.0048 21.255 64.1396 21.1995 64.2031 21.1519C64.2665 21.1043 64.3141 21.0726 64.3458 21.0409V20.5572C64.3299 20.5334 64.2824 20.5017 64.211 20.462C64.1317 20.4144 63.989 20.3589 63.7907 20.3034C63.5846 20.2479 63.3626 20.2162 63.1247 20.2162C62.6489 20.2162 62.3001 20.2955 62.086 20.47C61.975 20.5493 61.9115 20.6761 61.9115 20.8268ZM61.4675 20.8268C61.4675 20.4937 61.6181 20.24 61.9194 20.0656C62.2208 19.8911 62.5934 19.8039 63.0533 19.8039C63.2912 19.8039 63.5211 19.8356 63.7432 19.8911C63.9573 19.9546 64.1159 20.0101 64.2031 20.0656L64.3458 20.1607V19.5343C64.3458 19.2568 64.2427 19.0427 64.0287 18.892C63.8146 18.7493 63.5529 18.67 63.2357 18.67C62.9265 18.67 62.6569 18.7335 62.4269 18.8603C62.197 18.9872 62.086 19.1458 62.086 19.3361H61.6499C61.6578 19.0506 61.8005 18.8048 62.0701 18.5907C62.3397 18.3766 62.7282 18.2656 63.2199 18.2656C63.6639 18.2656 64.0365 18.3766 64.3379 18.5828C64.6392 18.7969 64.7898 19.114 64.7898 19.5343V20.9854C64.7898 21.1519 64.8136 21.2629 64.8692 21.3342C64.9247 21.3977 65.0039 21.4373 65.1308 21.4373C65.2101 21.4373 65.2736 21.4294 65.3211 21.4135L65.3449 21.3977V21.7783C65.2815 21.81 65.1863 21.8259 65.0674 21.8259C64.8533 21.8259 64.6947 21.7783 64.5995 21.6831C64.5044 21.588 64.4489 21.5166 64.4251 21.4611L64.4172 21.4215H64.4013C64.3854 21.4453 64.3141 21.5008 64.1951 21.5642C64.1079 21.6197 64.0207 21.6594 63.9335 21.699C63.7115 21.8021 63.4339 21.8496 63.093 21.8496C62.6251 21.8496 62.2366 21.7704 61.9353 21.6038C61.6181 21.4215 61.4675 21.1677 61.4675 20.8268Z" fill="white"/>
<path id="Vector_33" d="M69.2065 21.7624H68.6277L66.4947 20.0417V21.7624H66.0586V18.329H66.4947V20.0179L68.4849 18.329H69.0638L67.0735 20.0258L69.2065 21.7624Z" fill="white"/>
<path id="Vector_34" d="M69.2064 18.329H69.6743L71.0857 21.3659H71.1095L72.4971 18.329H72.9569L71.2918 21.9368C71.0857 22.3888 70.8874 22.7139 70.7051 22.92C70.5148 23.1262 70.3007 23.2372 70.0469 23.2372C69.8963 23.2372 69.7773 23.2213 69.6901 23.1817L69.6425 23.1658V22.7614C69.7377 22.809 69.8725 22.8328 70.0469 22.8328C70.1896 22.8328 70.3165 22.7614 70.4434 22.6266C70.5623 22.4839 70.6892 22.254 70.8319 21.9447L70.8637 21.8813L69.2064 18.329Z" fill="white"/>
<path id="Vector_35" d="M73.6152 20.4382L73.9324 18.329H76.3905V21.7624H75.9544V18.7334H74.2972L74.0355 20.4382C73.9562 20.9377 73.8531 21.2945 73.7104 21.5086C73.5756 21.7227 73.3695 21.8337 73.0919 21.8337C73.0126 21.8337 72.9333 21.8258 72.8699 21.802L72.8382 21.7861V21.3817C72.8937 21.4055 72.965 21.4135 73.0681 21.4214C73.2346 21.4214 73.3536 21.3421 73.425 21.1756C73.5042 20.9932 73.5677 20.7474 73.6152 20.4382Z" fill="white"/>
<path id="Vector_36" d="M79.6891 21.1835C79.8477 21.0725 79.9349 20.8901 79.9349 20.6364C79.9349 20.3906 79.8556 20.2082 79.6891 20.0893C79.5226 19.9783 79.2609 19.9148 78.8962 19.9148H78.016V21.3421H78.8962C79.2609 21.3579 79.5226 21.2945 79.6891 21.1835ZM80.0062 19.8038C80.26 19.9941 80.3869 20.2716 80.3869 20.6364C80.3869 21.0091 80.26 21.2866 80.0062 21.4769C79.7446 21.6672 79.3798 21.7624 78.9041 21.7624H77.5878V18.329H78.0239V19.5263H78.9041C79.3798 19.5184 79.7446 19.6135 80.0062 19.8038Z" fill="white"/>
<path id="Vector_37" d="M80.5613 18.329H83.8282V18.7334H82.4089V21.7624H81.9728V18.7334H80.5613V18.329Z" fill="white"/>
<path id="Vector_38" d="M84.629 19.9069H87.3884C87.3884 19.6293 87.2695 19.3518 87.0237 19.0822C86.7779 18.8126 86.4448 18.6778 86.0087 18.6778C85.5726 18.6778 85.2317 18.8126 84.9938 19.0822C84.748 19.3518 84.629 19.6293 84.629 19.9069ZM87.8404 20.0417L87.8166 20.3113H84.637C84.637 20.4143 84.6925 20.565 84.8114 20.7553C84.8748 20.8663 84.9541 20.9694 85.0493 21.0645C85.1523 21.1676 85.2872 21.2469 85.4616 21.3183C85.636 21.3817 85.8184 21.4134 86.0246 21.4134C86.1673 21.4134 86.31 21.3976 86.4448 21.3658C86.5796 21.3341 86.6907 21.2865 86.7779 21.231C86.9444 21.128 87.0554 21.0328 87.1109 20.9535L87.1585 20.898H87.6818C87.6659 20.9297 87.6501 20.9694 87.6342 20.9932C87.6104 21.0407 87.547 21.12 87.4598 21.2231C87.3646 21.3341 87.2615 21.4293 87.1505 21.5086C87.0316 21.5958 86.873 21.6672 86.6748 21.7306C86.4766 21.802 86.2545 21.8337 86.0246 21.8337C85.4854 21.8337 85.0414 21.6672 84.6925 21.3421C84.3436 21.009 84.1691 20.5808 84.1691 20.0496C84.1691 19.5263 84.3436 19.0901 84.6925 18.7571C85.0334 18.4241 85.4775 18.2576 86.0087 18.2576C86.54 18.2576 86.984 18.4241 87.325 18.7571C87.6739 19.0822 87.8404 19.5183 87.8404 20.0417Z" fill="white"/>
<path id="Vector_39" d="M88.2606 18.329H91.5275V18.7334H90.1081V21.7624H89.6799V18.7334H88.2606V18.329Z" fill="white"/>
<path id="Vector_40" d="M60.199 28.7639H59.5963L56.9004 26.3217V28.7639H56.4405V23.8636H56.9004V26.2504L59.406 23.8636H60.0007L57.5109 26.29L60.199 28.7639Z" fill="white"/>
<path id="Vector_41" d="M60.2545 25.3306H60.7223L62.1337 28.3675H62.1575L63.5451 25.3306H64.005L62.3399 28.9384C62.1338 29.3903 61.9355 29.7154 61.7532 29.9216C61.5629 30.1278 61.3488 30.2388 61.095 30.2388C60.9444 30.2388 60.8254 30.2229 60.7382 30.1833L60.6906 30.1674V29.763C60.7858 29.8106 60.9206 29.8344 61.095 29.8344C61.2377 29.8344 61.3646 29.763 61.4915 29.6282C61.6104 29.4855 61.7373 29.2555 61.88 28.9463L61.9038 28.8829L60.2545 25.3306Z" fill="white"/>
<path id="Vector_42" d="M67.2796 28.0661C67.5175 27.8362 67.6364 27.5507 67.6364 27.2018C67.6364 26.8609 67.5175 26.5675 67.2796 26.3376C67.0338 26.1076 66.7166 25.9887 66.3201 25.9887C65.9475 25.9887 65.6382 26.1076 65.3845 26.3376C65.1308 26.5754 65.0039 26.8609 65.0039 27.2018C65.0039 27.5507 65.1308 27.8362 65.3845 28.0661C65.6382 28.2961 65.9475 28.415 66.3201 28.415C66.7166 28.415 67.0417 28.304 67.2796 28.0661ZM66.4153 24.7834C66.1298 24.7834 65.884 24.831 65.6699 24.9341C65.4558 25.0292 65.2893 25.164 65.1783 25.3306C64.9722 25.6398 64.8612 25.9966 64.8612 26.3851H64.8849C64.8929 26.3613 64.9087 26.3296 64.9325 26.2979C64.9484 26.2662 64.996 26.2028 65.0752 26.1076C65.1625 26.0045 65.2497 25.9252 65.3449 25.8539C65.4559 25.7746 65.5986 25.7112 65.781 25.6556C65.9633 25.6001 66.1695 25.5684 66.3995 25.5684C66.8911 25.5684 67.2954 25.7191 67.6126 26.0283C67.9219 26.3376 68.0805 26.7261 68.0805 27.2018C68.0805 27.6855 67.9219 28.0741 67.5968 28.3754C67.2717 28.6767 66.8435 28.8274 66.3123 28.8274C65.7493 28.8274 65.3052 28.6371 64.9643 28.2485C64.6233 27.86 64.4568 27.3525 64.4568 26.7261V26.4327C64.4568 25.8222 64.6154 25.3226 64.9484 24.9341C65.2735 24.5456 65.7413 24.3552 66.3519 24.3552C66.9704 24.3552 67.2717 24.1887 67.2717 23.8557H67.7236C67.7236 24.1253 67.6206 24.3473 67.4223 24.5218C67.2162 24.6962 66.8831 24.7834 66.4153 24.7834Z" fill="white"/>
<path id="Vector_43" d="M69.1985 23.8636H72.6161V24.2839H69.6585V28.7639H69.1985V23.8636Z" fill="white"/>
<path id="Vector_44" d="M72.8619 23.8636H73.3694L75.0822 26.9798H75.1059L76.7314 23.8636H77.2468L75.2328 27.7014C75.0267 28.082 74.8443 28.3595 74.6698 28.5261C74.4954 28.6926 74.2496 28.7798 73.9324 28.7798H73.5518V28.3595H73.8769C74.0672 28.3595 74.2178 28.312 74.3447 28.2168C74.4636 28.1217 74.5826 27.9552 74.7174 27.7093L74.8443 27.4794L72.8619 23.8636Z" fill="white"/>
</g>
<path id="Vector_45" d="M62.8393 83.6344H75.7878V39.1354H62.8393V83.6344ZM76.1842 84.0308H62.4429V38.7389H76.1842V84.0308Z" fill="#F3F3F2"/>
<path id="Vector_46" d="M62.7681 83.9833L62.5143 83.674L69.1115 78.3614V45.8515L62.4985 39.072L62.784 38.7944L69.508 45.685V78.5517L69.4366 78.6072L62.7681 83.9833Z" fill="#F3F3F2"/>
<path id="Vector_47" d="M75.8601 38.8123L69.1909 45.6544L69.4748 45.9312L76.144 39.089L75.8601 38.8123Z" fill="#F3F3F2"/>
<path id="Vector_48" d="M69.4345 78.2792L69.1858 78.588L75.8551 83.96L76.1038 83.6512L69.4345 78.2792Z" fill="#F3F3F2"/>
</g>
</svg>
